<?xml version="1.0" encoding="utf-8"?>
<!-- Generator: Adobe Illustrator 16.0.0, SVG Export Plug-In . SVG Version: 6.00 Build 0)  -->
<!DOCTYPE svg PUBLIC "-//W3C//DTD SVG 1.1//EN" "http://www.w3.org/Graphics/SVG/1.1/DTD/svg11.dtd">
<svg version="1.1" id="Layer_1" xmlns="http://www.w3.org/2000/svg" xmlns:xlink="http://www.w3.org/1999/xlink" x="0px" y="0px"
	 width="480px" height="480px" viewBox="0 0 480 480" enable-background="new 0 0 480 480" xml:space="preserve">
<path fill="#8589D2" d="M367.84,74.473l15.215-4.953l15.625,48.004l-15.215,4.949L367.84,74.473z"/>
<path fill="#8589D2" d="M344.391,130.48l15.215-4.953l15.629,47.996l-15.215,4.957L344.391,130.48z"/>
<path fill="#8589D2" d="M74.625,153.816c-1.688,12.223,1.879,24.59,9.824,34.031L96,202.336V336h16V214.953l11.559,7.703
	c2.691,1.793,6.191,1.793,8.883,0L152,209.602l19.559,13.039c2.691,1.793,6.191,1.793,8.883,0L200,209.602l19.559,13.039
	c2.691,1.793,6.191,1.793,8.883,0L248,209.602l19.559,13.039c2.691,1.793,6.191,1.793,8.883,0L296,209.602l16,10.664V464H136v16h224
	c22.082-0.027,39.973-17.918,40-40V200c-0.02-1.758-0.625-3.461-1.719-4.84l46.23-123.078c6.223-16.535,3.945-35.066-6.094-49.602
	C428.879,8.379,412.949-0.051,395.93,0c-21.695,0.203-41.02,13.758-48.594,34.09L334.793,67.48L320,52.688V24c0-4.418-3.582-8-8-8
	h-88c-4.418,0-8,3.582-8,8v13.727c-9.043-8.195-22.684-8.66-32.266-1.094V24c0-13.094-10.613-23.711-23.711-23.711
	c-13.094,0-23.711,10.617-23.711,23.711v12.641c-4.379-3.629-9.891-5.613-15.578-5.602c-6.602-0.016-12.93,2.648-17.535,7.387
	c-9.488,9.777-9.547,25.309-0.137,35.16l7.449,7.688c-2.711,1.242-5.172,2.969-7.262,5.094l-0.051,0.031l-0.078,0.082
	c-1.863,1.914-3.406,4.117-4.563,6.527l-9.117-16.84l-14.074,7.617l20.688,38.184c-0.926,0.527-1.855,1.039-2.734,1.641
	c-0.328,0.223-0.617,0.48-0.938,0.703L61.426,95.785l-10.848,11.766l30.75,28.352C77.797,141.305,75.508,147.422,74.625,153.816z
	 M243.559,193.344L224,206.398l-19.559-13.039c-2.691-1.793-6.191-1.793-8.883,0l-19.375,12.922
	c-0.047-0.801-0.184-1.496-0.184-2.266c-0.051-17.582,12.641-32.617,29.98-35.516c17.344-2.902,34.234,7.184,39.906,23.828
	C245.063,192.543,244.277,192.883,243.559,193.344z M264,201.055l-0.152-0.102c-0.961-16.816-10.02-32.121-24.301-41.055
	C225.27,150.965,207.543,149.512,192,156v-52h72V201.055z M384,440c0,13.254-10.746,24-24,24h-32V220.281l16-10.68l19.559,13.039
	c2.691,1.793,6.191,1.793,8.883,0L384,214.953V440z M362.313,39.711C367.527,25.609,380.895,16.184,395.93,16
	c11.758-0.023,22.754,5.809,29.336,15.551c7.063,10.23,8.656,23.273,4.27,34.906L380,198.398l-12,8l-19.559-13.039
	c-2.691-1.793-6.191-1.793-8.883,0L320,206.398l-16.23-10.82L362.313,39.711z M328.617,83.93L286.16,196.945l-6.16,4.109V99.313
	l32-32L328.617,83.93z M232,32h72v16h-72V32z M227.313,64h65.375l-24,24h-65.375L227.313,64z M114.617,49.648
	c1.605-1.656,3.813-2.594,6.117-2.594c2.309,0.004,4.516,0.938,6.121,2.594l11.746,12c2.281,2.328,5.746,3.035,8.758,1.797
	c3.012-1.242,4.973-4.188,4.953-7.445V24c-0.129-2.84,1.313-5.52,3.75-6.977c2.441-1.461,5.484-1.461,7.922,0
	c2.441,1.457,3.883,4.137,3.75,6.977v32c0.004,3.246,1.969,6.168,4.977,7.395c3.004,1.23,6.453,0.52,8.73-1.793l11.781-12
	c3.375-3.324,8.789-3.324,12.16,0c3.477,3.559,3.477,9.238,0,12.797l-23.566,24l0.238,0.242l-3.711,3.711
	c-0.645,0.664-1.164,1.438-1.543,2.281c-0.113,0.246-0.176,0.496-0.266,0.75c-0.238,0.684-0.383,1.395-0.43,2.113
	c0,0.176-0.098,0.32-0.098,0.496v70.566c-1.82,1.742-3.512,3.613-5.055,5.602L155.84,140c-5.578-11.098-15.66-19.262-27.68-22.398
	c-2.797-0.723-5.664-1.16-8.551-1.297l-2.051-2.402c-1.598-1.832-2.805-3.262-3-3.461c-2.066-2.164-2.961-5.195-2.398-8.137
	c0.297-1.672,1.066-3.219,2.215-4.465l0.145-0.137l0.199-0.215c2.898-2.84,7.387-3.258,10.762-1.008
	c3.395,2.27,7.949,1.617,10.574-1.508c2.625-3.129,2.473-7.727-0.352-10.676l-21.145-21.824
	C111.125,58.879,111.152,53.211,114.617,49.648z M90.48,156c1.043-7.754,5.336-14.699,11.809-19.098
	c6.418-4.34,14.391-5.715,21.895-3.773c7.5,1.945,13.805,7.02,17.305,13.934l20.391,43.434c-0.504,1.871-0.902,3.77-1.191,5.688
	l-4.215-2.816c-2.688-1.793-6.191-1.793-8.879,0L128,206.398l-17.742-11.84l-1.715-2.148l20.625-15.945l-9.793-12.656
	l-20.797,16.086l-1.777-2.215C91.711,171.68,89.414,163.797,90.48,156z"/>
<path fill="#8589D2" d="M17.082,460.047c6.078,12.262,18.602,20,32.285,19.953c5.605-0.008,11.129-1.313,16.145-3.809L72,472.945
	l6.496,3.246c5.012,2.496,10.535,3.801,16.137,3.809c13.688,0.047,26.207-7.691,32.289-19.953l2.789-5.598
	c9.367-18.797,14.258-39.504,14.289-60.504c-0.027-23.156-18.789-41.918-41.945-41.945c-7.805,0.023-15.449,2.238-22.055,6.398V352
	c0-17.672-14.328-32-32-32v16c8.836,0,16,7.164,16,16v6.398c-6.605-4.16-14.25-6.375-22.055-6.398
	C18.789,352.027,0.027,370.789,0,393.945c0.027,21.004,4.918,41.719,14.289,60.52L17.082,460.047z M41.945,368
	c6.883-0.02,13.488,2.719,18.344,7.602l6.055,6.055c3.125,3.121,8.188,3.121,11.313,0l6.055-6.055
	c7.422-7.422,18.578-9.641,28.273-5.625S128,383.453,128,393.945c-0.02,18.523-4.332,36.789-12.602,53.367l-2.789,5.602
	c-3.395,6.816-10.363,11.113-17.977,11.086c-3.117-0.004-6.191-0.73-8.984-2.121l-10.07-5.039c-2.254-1.125-4.902-1.125-7.152,0
	l-10.066,5.039c-2.793,1.391-5.871,2.117-8.992,2.121c-7.617,0.023-14.59-4.285-17.977-11.113l-2.789-5.598
	c-8.266-16.57-12.578-34.828-12.602-53.344C16.02,379.625,27.625,368.02,41.945,368z"/>
</svg>
